<svg id="Group_1772" data-name="Group 1772" xmlns="http://www.w3.org/2000/svg" viewBox="0 0 44.378 44.548">
  <defs>
    <style>
      .cls-1 {
        fill: #63b190;
      }
    </style>
  </defs>
  <path id="Path_1519" data-name="Path 1519" class="cls-1" d="M22.188,44.548a22.274,22.274,0,1,1,22.188-22.36A22.279,22.279,0,0,1,22.188,44.548Zm0-41.968A19.608,19.608,0,1,0,41.8,22.188,19.6,19.6,0,0,0,22.188,2.58Z"/>
  <path id="Path_1520" data-name="Path 1520" class="cls-1" d="M12.257,25.458h-.172c-.344,0-.688-.344-1.032-.688l-3.1-6.536a1.257,1.257,0,0,1,.688-1.72,1.257,1.257,0,0,1,1.72.688l2.408,4.988L25.329,9.462a1.338,1.338,0,0,1,1.892,1.892l-13.932,14.1Z" transform="translate(5.632 4.814)"/>
</svg>
