<svg xmlns="http://www.w3.org/2000/svg" viewBox="0 0 175.721 231.346">
  <defs>
    <style>
      .cls-1 {
        fill: #cf1f26;
      }

      .cls-2 {
        fill: #af7b46;
      }
    </style>
  </defs>
  <g id="Group_4" data-name="Group 4" transform="translate(-24 -878)">
    <path id="Path_617" data-name="Path 617" class="cls-1" d="M150.618,65.13H133.656V17.639A17.517,17.517,0,0,0,116.017,0H59.026c-9.5,0-16.961,7.463-16.961,17.639V65.13H25.1A25.044,25.044,0,0,0,0,90.232V206.244a25.044,25.044,0,0,0,25.1,25.1H150.618a25.044,25.044,0,0,0,25.1-25.1V89.553C175.042,75.985,164.187,65.13,150.618,65.13Zm-98.377-.678V17.639A7.529,7.529,0,0,1,59.7,10.177h56.991a7.529,7.529,0,0,1,7.463,7.463V65.13l-71.917-.678ZM164.866,205.565a15.058,15.058,0,0,1-14.926,14.926H25.1a15.058,15.058,0,0,1-14.926-14.926V89.553A15.058,15.058,0,0,1,25.1,74.628H150.618a15.058,15.058,0,0,1,14.926,14.926V205.565Z" transform="translate(24 878)"/>
    <path id="Path_618" data-name="Path 618" class="cls-2" d="M40.826,47.908a16.685,16.685,0,0,0,9.5-14.926A16.509,16.509,0,0,0,34.041,16.7,16.509,16.509,0,0,0,17.758,32.982a16.685,16.685,0,0,0,9.5,14.926L9.617,83.187c-.678,1.357,0,2.714,2.035,2.714H58.466c1.357,0,2.714-1.357,2.035-2.714Z" transform="translate(78.158 974.598)"/>
  </g>
</svg>
