<svg xmlns="http://www.w3.org/2000/svg" width="236.5" height="233.4" viewBox="0 0 236.5 233.4">
  <g id="Group_2173" data-name="Group 2173" transform="translate(-78 1023)">
    <path id="Union_5" data-name="Union 5" d="M34.6,199.237a115.614,115.614,0,0,1,.105-165.073,119.226,119.226,0,0,1,167.19.1A115.741,115.741,0,0,1,236.5,116.8h-.106a115.748,115.748,0,0,1-34.6,82.432,119.358,119.358,0,0,1-167.19,0ZM41.374,40.746a106.614,106.614,0,0,0-.105,151.908,109.816,109.816,0,0,0,153.857,0,106.364,106.364,0,0,0,0-151.8,109.82,109.82,0,0,0-153.752-.1ZM165.634,170.68,118.3,123.349,70.972,170.68a4.7,4.7,0,1,1-6.649-6.648L111.654,116.7,64.323,69.368a4.7,4.7,0,1,1,6.649-6.648L118.3,110.051,165.56,62.795a4.947,4.947,0,0,1,6.766-.117,4.712,4.712,0,0,1-.043,6.691L124.952,116.7l47.256,47.257a4.947,4.947,0,0,1,.118,6.766,4.656,4.656,0,0,1-3.307,1.373A4.776,4.776,0,0,1,165.634,170.68Z" transform="translate(78 -1023)" fill="#cf1f26"/>
  </g>
</svg>
